<?xml version="1.0" encoding="utf-8"?>
<!-- Generator: Adobe Illustrator 26.2.1, SVG Export Plug-In . SVG Version: 6.00 Build 0)  -->
<svg version="1.1" id="Layer_1" xmlns="http://www.w3.org/2000/svg" xmlns:xlink="http://www.w3.org/1999/xlink" x="0px" y="0px"
	 viewBox="0 0 249 51" style="enable-background:new 0 0 249 51;" xml:space="preserve">
<style type="text/css">
	.st0{fill:#009444;}
	.st1{fill:none;}
	.st2{fill-rule:evenodd;clip-rule:evenodd;fill:#39B54A;}
	.st3{fill-rule:evenodd;clip-rule:evenodd;fill:#009444;}
	.st4{fill-rule:evenodd;clip-rule:evenodd;fill:#006838;}
	.st5{fill-rule:evenodd;clip-rule:evenodd;fill:#8DC63F;}
	.st6{fill-rule:evenodd;clip-rule:evenodd;fill:#D7DF23;}
	.st7{fill:#643D97;}
	.st8{fill:#80B541;}
</style>
<path class="st0" d="M63.6,45.2c-0.6,0-1.1-0.1-1.5-0.3c-0.5-0.2-0.8-0.5-1.2-0.8c-0.3-0.4-0.6-0.8-0.8-1.3
	c-0.2-0.5-0.3-1.1-0.3-1.7c0-0.6,0.1-1.2,0.3-1.7c0.2-0.5,0.4-1,0.8-1.3c0.3-0.4,0.7-0.7,1.2-0.9c0.5-0.2,1-0.3,1.5-0.3
	c0.9,0,1.7,0.2,2.4,0.7c0.6,0.5,1,1.2,1.2,2.2l-1.6,0c-0.1-0.6-0.3-1-0.6-1.2c-0.3-0.3-0.8-0.4-1.3-0.4c-0.7,0-1.2,0.2-1.6,0.7
	c-0.4,0.5-0.6,1.2-0.6,2.1v0.1c0,0.8,0.2,1.5,0.6,2s0.9,0.8,1.5,0.8c0.5,0,1-0.1,1.3-0.4c0.3-0.3,0.6-0.7,0.7-1.3l1.6,0.4
	c-0.2,0.9-0.6,1.6-1.3,2C65.3,45,64.5,45.2,63.6,45.2z M72.1,45.2c-0.3,0-0.6,0-0.8-0.1c-0.2-0.1-0.4-0.2-0.5-0.4
	c-0.2-0.2-0.3-0.5-0.4-0.8c-0.1-0.3-0.1-0.8-0.1-1.5v-3.8h1.5v3.6c0,0.5,0,0.8,0.1,1c0,0.2,0.1,0.3,0.2,0.4c0.1,0.1,0.2,0.2,0.3,0.2
	c0.1,0,0.3,0.1,0.5,0.1c0.5,0,0.8-0.1,1-0.2c0.2-0.1,0.4-0.2,0.5-0.3v-4.9h1.5v4.2c0,0.2,0,0.4,0,0.7c0,0.2,0,0.4,0,0.6
	c0,0.2,0,0.4,0,0.5c0,0.1,0,0.3,0.1,0.3h-1.5c0,0-0.1-0.2-0.1-0.5c0-0.3,0-0.6,0-1c-0.2,0.4-0.6,0.8-0.9,1.1
	C73.1,45,72.7,45.2,72.1,45.2z M81.9,45.2c-0.6,0-1-0.2-1.3-0.5c-0.2-0.3-0.4-0.8-0.4-1.5v-3.5l-0.4,0.2h-0.9v-1.3H80l0.4-2.1h1.1
	v1.4l-0.4,0.8h2.3v1.3h-1.4l-0.7-0.2l0.2,0.5v3c0,0.2,0.1,0.4,0.2,0.5c0.1,0.1,0.3,0.1,0.5,0.1h1.1v1.1c-0.2,0.1-0.4,0.2-0.7,0.2
	C82.4,45.2,82.1,45.2,81.9,45.2z M88.8,45.2c-0.6,0-1-0.2-1.3-0.5c-0.2-0.3-0.4-0.8-0.4-1.5v-3.5l-0.4,0.2h-0.9v-1.3H87l0.4-2.1h1.1
	v1.4l-0.4,0.8h2.3v1.3H89l-0.7-0.2l0.2,0.5v3c0,0.2,0.1,0.4,0.2,0.5c0.1,0.1,0.3,0.1,0.5,0.1h1.1v1.1c-0.2,0.1-0.4,0.2-0.7,0.2
	C89.3,45.2,89,45.2,88.8,45.2z M93.5,38.6H95V45h-1.5V38.6z M93.4,35.7h1.7c0,0.1,0,0.3,0,0.5c0,0.2,0,0.3,0,0.5s0,0.3,0,0.4
	c0,0.1,0,0.2,0,0.3h-1.4c0-0.1,0-0.2,0-0.3c0-0.1,0-0.3,0-0.4s0-0.3,0-0.5C93.4,36,93.4,35.8,93.4,35.7z M100,38.6l0.1,1.3
	c0.3-0.4,0.6-0.7,1-1c0.4-0.3,0.9-0.5,1.5-0.5c0.3,0,0.6,0,0.8,0.1c0.2,0.1,0.4,0.2,0.6,0.3c0.2,0.2,0.3,0.5,0.3,0.8
	s0.1,0.8,0.1,1.4V45h-1.5v-3.6c0-0.5,0-0.8,0-1c0-0.2-0.1-0.3-0.2-0.4c-0.1-0.1-0.1-0.1-0.3-0.2c-0.1-0.1-0.3-0.1-0.5-0.1
	c-0.4,0-0.8,0-1.1,0.1c-0.3,0.1-0.5,0.1-0.6,0.1v5h-1.5v-6.4H100z M110.5,48.6c-1,0-1.7-0.2-2.3-0.5c-0.5-0.3-0.8-0.7-0.8-1.2
	c0-0.4,0.1-0.7,0.4-1c0.3-0.3,0.6-0.5,1.1-0.6c-0.1,0.1-0.1,0.2-0.2,0.3c0,0.1-0.1,0.3-0.1,0.4c0,0.4,0.1,0.8,0.4,1
	c0.3,0.3,0.8,0.4,1.4,0.4c0.4,0,0.8,0,1.2-0.1c0.4,0,0.6-0.1,0.8-0.2c0.1-0.1,0.1-0.2,0.2-0.3c0.1-0.1,0.1-0.3,0.1-0.5
	c0-0.2-0.2-0.4-0.5-0.6c-0.3-0.2-0.8-0.3-1.7-0.3c-0.4,0-0.8-0.1-1.1-0.2c-0.3-0.1-0.5-0.2-0.6-0.3c-0.2-0.1-0.3-0.2-0.3-0.3
	c-0.1-0.1-0.1-0.3-0.1-0.4c0-0.3,0.1-0.5,0.3-0.7c0.2-0.2,0.5-0.3,0.8-0.4c0,0,0,0,0,0c0,0,0,0,0,0c-0.8-0.1-1.4-0.4-1.7-0.8
	c-0.3-0.4-0.5-0.8-0.5-1.4c0-0.3,0.1-0.6,0.2-0.9c0.1-0.3,0.3-0.6,0.6-0.8c0.3-0.2,0.6-0.4,0.9-0.6c0.4-0.1,0.8-0.2,1.3-0.2
	c0.5,0,0.8,0,1.1,0.1c0.3,0.1,0.6,0.2,0.9,0.3c0.4,0.2,0.6,0.4,0.8,0.8c0.2,0.3,0.2,0.7,0.2,1c0,0.4-0.1,0.7-0.3,1.1
	c-0.2,0.4-0.4,0.6-0.6,0.8c-0.2,0.2-0.5,0.3-0.8,0.4c-0.3,0.1-0.7,0.1-1.2,0.1h-0.9v0.2c0,0.2,0,0.3,0.1,0.5
	c0.1,0.1,0.2,0.2,0.3,0.3c0.2,0.1,0.4,0.1,0.6,0.1c0.3,0,0.6,0.1,1,0.1c0.9,0.1,1.5,0.3,1.9,0.6c0.4,0.3,0.5,0.7,0.5,1.2
	c0,0.3-0.1,0.6-0.2,0.9c-0.1,0.3-0.3,0.6-0.6,0.8c-0.3,0.2-0.7,0.4-1.2,0.5C111.7,48.5,111.1,48.6,110.5,48.6z M110.7,42.2
	c0.2,0,0.3,0,0.5,0c0.2,0,0.4-0.1,0.6-0.2c0.1-0.1,0.2-0.3,0.2-0.5c0.1-0.2,0.1-0.4,0.1-0.6v-0.1c0-0.2,0-0.5-0.1-0.6
	c-0.1-0.2-0.2-0.3-0.3-0.4c-0.1-0.1-0.2-0.2-0.5-0.2c-0.2,0-0.5-0.1-0.8-0.1h-0.1c-0.2,0-0.4,0-0.6,0c-0.2,0-0.3,0.1-0.5,0.1
	c-0.1,0.1-0.2,0.3-0.2,0.5s-0.1,0.4-0.1,0.6v0.1c0,0.2,0,0.4,0.1,0.6c0.1,0.2,0.1,0.4,0.3,0.5c0.1,0.1,0.3,0.2,0.5,0.2
	C110,42.2,110.3,42.2,110.7,42.2z M112.3,38.7l0.2-1.9h1.5c0,0.2,0,0.4-0.1,0.7c-0.1,0.2-0.1,0.4-0.3,0.6c-0.1,0.2-0.3,0.3-0.5,0.4
	c-0.2,0.1-0.4,0.2-0.7,0.2H112.3z M121.6,45v-8h5.8v1.3h-3.9l-0.7-0.1l0.2,0.6V40l-0.1,0.4l0.3-0.1h2.8v1.3h-2.4l-0.6-0.2l0.1,0.3
	v1.5l-0.2,0.6l0.7-0.2h4V45H121.6z M132.8,45.2c-0.3,0-0.6,0-0.8-0.1c-0.2-0.1-0.5-0.2-0.7-0.4c-0.2-0.2-0.4-0.5-0.6-0.9
	c-0.2-0.4-0.3-1-0.3-1.9c0-0.9,0.1-1.5,0.3-1.9c0.2-0.4,0.4-0.7,0.5-0.9c0.2-0.2,0.4-0.3,0.7-0.5c0.3-0.1,0.6-0.2,1-0.2
	c0.5,0,1,0.1,1.3,0.4c0.4,0.3,0.7,0.6,1,1.1v-4h1.5V45h-1.4l0-1.3c-0.3,0.5-0.6,0.8-1,1.1C133.7,45.1,133.3,45.2,132.8,45.2z
	 M133.4,44c0.4,0,0.7,0,1-0.1c0.3-0.1,0.6-0.2,0.7-0.3V40c-0.2-0.1-0.4-0.2-0.7-0.2c-0.3-0.1-0.6-0.1-0.9-0.1c-0.3,0-0.6,0-0.8,0.1
	c-0.2,0.1-0.3,0.2-0.4,0.3c-0.1,0.1-0.2,0.3-0.3,0.6c-0.1,0.2-0.1,0.7-0.1,1.2c0,0.5,0,0.9,0.1,1.2c0.1,0.3,0.2,0.5,0.3,0.6
	c0.1,0.1,0.2,0.2,0.4,0.3C132.9,44,133.2,44,133.4,44z M142.9,48.6c-1,0-1.7-0.2-2.3-0.5c-0.5-0.3-0.8-0.7-0.8-1.2
	c0-0.4,0.1-0.7,0.4-1s0.6-0.5,1.1-0.6c-0.1,0.1-0.1,0.2-0.2,0.3c0,0.1-0.1,0.3-0.1,0.4c0,0.4,0.1,0.8,0.4,1c0.3,0.3,0.8,0.4,1.4,0.4
	c0.4,0,0.8,0,1.2-0.1c0.4,0,0.6-0.1,0.8-0.2c0.1-0.1,0.1-0.2,0.2-0.3c0.1-0.1,0.1-0.3,0.1-0.5c0-0.2-0.2-0.4-0.5-0.6
	c-0.3-0.2-0.8-0.3-1.7-0.3c-0.4,0-0.8-0.1-1.1-0.2c-0.3-0.1-0.5-0.2-0.6-0.3c-0.2-0.1-0.3-0.2-0.3-0.3c-0.1-0.1-0.1-0.3-0.1-0.4
	c0-0.3,0.1-0.5,0.3-0.7c0.2-0.2,0.5-0.3,0.8-0.4c0,0,0,0,0,0c0,0,0,0,0,0c-0.8-0.1-1.4-0.4-1.7-0.8s-0.5-0.8-0.5-1.4
	c0-0.3,0.1-0.6,0.2-0.9c0.1-0.3,0.3-0.6,0.6-0.8c0.3-0.2,0.6-0.4,0.9-0.6c0.4-0.1,0.8-0.2,1.3-0.2c0.5,0,0.8,0,1.1,0.1
	c0.3,0.1,0.6,0.2,0.9,0.3c0.4,0.2,0.6,0.4,0.8,0.8c0.2,0.3,0.2,0.7,0.2,1c0,0.4-0.1,0.7-0.3,1.1c-0.2,0.4-0.4,0.6-0.6,0.8
	c-0.2,0.2-0.5,0.3-0.8,0.4c-0.3,0.1-0.7,0.1-1.2,0.1h-0.9v0.2c0,0.2,0,0.3,0.1,0.5c0.1,0.1,0.2,0.2,0.3,0.3c0.2,0.1,0.4,0.1,0.6,0.1
	c0.3,0,0.6,0.1,1,0.1c0.9,0.1,1.5,0.3,1.9,0.6c0.4,0.3,0.5,0.7,0.5,1.2c0,0.3-0.1,0.6-0.2,0.9c-0.1,0.3-0.3,0.6-0.6,0.8
	c-0.3,0.2-0.7,0.4-1.2,0.5C144,48.5,143.5,48.6,142.9,48.6z M143.1,42.2c0.2,0,0.3,0,0.5,0c0.2,0,0.4-0.1,0.6-0.2
	c0.1-0.1,0.2-0.3,0.2-0.5c0.1-0.2,0.1-0.4,0.1-0.6v-0.1c0-0.2,0-0.5-0.1-0.6c-0.1-0.2-0.2-0.3-0.3-0.4c-0.1-0.1-0.2-0.2-0.5-0.2
	c-0.2,0-0.5-0.1-0.8-0.1h-0.1c-0.2,0-0.4,0-0.6,0c-0.2,0-0.3,0.1-0.5,0.1c-0.1,0.1-0.2,0.3-0.2,0.5s-0.1,0.4-0.1,0.6v0.1
	c0,0.2,0,0.4,0.1,0.6c0.1,0.2,0.1,0.4,0.3,0.5c0.1,0.1,0.3,0.2,0.5,0.2C142.4,42.2,142.7,42.2,143.1,42.2z M144.7,38.7l0.2-1.9h1.5
	c0,0.2,0,0.4-0.1,0.7c-0.1,0.2-0.1,0.4-0.3,0.6c-0.1,0.2-0.3,0.3-0.5,0.4c-0.2,0.1-0.4,0.2-0.7,0.2H144.7z M152.1,45.2
	c-1,0-1.8-0.3-2.3-0.9c-0.6-0.6-0.9-1.4-0.9-2.5c0-0.5,0.1-1,0.2-1.4c0.2-0.4,0.4-0.8,0.7-1.1c0.3-0.3,0.6-0.5,1-0.6
	c0.4-0.2,0.8-0.2,1.3-0.2c0.5,0,0.9,0.1,1.3,0.2c0.4,0.1,0.7,0.3,1,0.6c0.3,0.3,0.5,0.6,0.6,1.1s0.2,0.9,0.2,1.4v0.5h-3.9l-1-0.3V42
	c0,0.3,0,0.5,0.1,0.8c0.1,0.2,0.2,0.5,0.3,0.6c0.2,0.2,0.3,0.3,0.6,0.4c0.2,0.1,0.5,0.2,0.9,0.2c0.4,0,0.7-0.1,1-0.2
	c0.3-0.2,0.5-0.3,0.6-0.6l1.1,0.8c-0.3,0.3-0.6,0.6-1.1,0.8C153.3,45.1,152.7,45.2,152.1,45.2z M150.7,40.1
	c-0.1,0.2-0.3,0.3-0.3,0.6s-0.1,0.4-0.1,0.7h3.5c0-0.2,0-0.5-0.1-0.7c-0.1-0.2-0.2-0.4-0.3-0.6c-0.1-0.1-0.3-0.2-0.5-0.3
	c-0.2-0.1-0.4-0.1-0.8-0.1c-0.3,0-0.6,0-0.8,0.1C151,39.8,150.9,39.9,150.7,40.1z M163,45v-8h3c1.3,0,2.2,0.3,2.9,1
	c0.7,0.7,1.1,1.7,1.1,3c0,1.3-0.4,2.3-1.1,3c-0.7,0.7-1.7,1-3,1H163z M165,43.7h0.9c0.8,0,1.4-0.2,1.8-0.7c0.4-0.4,0.6-1.1,0.6-2V41
	c0-0.9-0.2-1.6-0.6-2c-0.4-0.4-1-0.7-1.8-0.7h-1l-0.6-0.2l0.2,0.6v4.7l-0.2,0.4L165,43.7z M176.1,45.2c-1,0-1.8-0.3-2.3-0.9
	c-0.6-0.6-0.9-1.4-0.9-2.5c0-0.5,0.1-1,0.2-1.4c0.2-0.4,0.4-0.8,0.7-1.1c0.3-0.3,0.6-0.5,1-0.6c0.4-0.2,0.8-0.2,1.3-0.2
	c0.5,0,0.9,0.1,1.3,0.2c0.4,0.1,0.7,0.3,1,0.6c0.3,0.3,0.5,0.6,0.6,1.1c0.1,0.4,0.2,0.9,0.2,1.4v0.5h-3.9l-1-0.3V42
	c0,0.3,0,0.5,0.1,0.8c0.1,0.2,0.2,0.5,0.3,0.6c0.2,0.2,0.3,0.3,0.6,0.4c0.2,0.1,0.5,0.2,0.9,0.2c0.4,0,0.7-0.1,1-0.2
	c0.3-0.2,0.5-0.3,0.6-0.6l1.1,0.8c-0.3,0.3-0.6,0.6-1.1,0.8C177.2,45.1,176.7,45.2,176.1,45.2z M174.7,40.1
	c-0.1,0.2-0.3,0.3-0.3,0.6c-0.1,0.2-0.1,0.4-0.1,0.7h3.5c0-0.2,0-0.5-0.1-0.7c-0.1-0.2-0.2-0.4-0.3-0.6c-0.1-0.1-0.3-0.2-0.5-0.3
	c-0.2-0.1-0.4-0.1-0.8-0.1c-0.3,0-0.6,0-0.8,0.1C175,39.8,174.8,39.9,174.7,40.1z M184.3,45.2c-0.3,0-0.6,0-0.8-0.1
	c-0.2-0.1-0.5-0.2-0.7-0.4c-0.2-0.2-0.4-0.5-0.6-0.9c-0.2-0.4-0.3-1-0.3-1.9c0-0.9,0.1-1.5,0.3-1.9c0.2-0.4,0.4-0.7,0.5-0.9
	c0.2-0.2,0.4-0.3,0.7-0.5c0.3-0.1,0.6-0.2,1-0.2c0.5,0,1,0.1,1.3,0.4c0.4,0.3,0.7,0.6,1,1.1v-4h1.5V45h-1.4l0-1.3
	c-0.3,0.5-0.6,0.8-1,1.1C185.2,45.1,184.8,45.2,184.3,45.2z M184.9,44c0.4,0,0.7,0,1-0.1c0.3-0.1,0.6-0.2,0.7-0.3V40
	c-0.2-0.1-0.4-0.2-0.7-0.2c-0.3-0.1-0.6-0.1-0.9-0.1c-0.3,0-0.6,0-0.8,0.1c-0.2,0.1-0.3,0.2-0.4,0.3c-0.1,0.1-0.2,0.3-0.3,0.6
	c-0.1,0.2-0.1,0.7-0.1,1.2c0,0.5,0,0.9,0.1,1.2c0.1,0.3,0.2,0.5,0.3,0.6c0.1,0.1,0.2,0.2,0.4,0.3C184.5,44,184.7,44,184.9,44z
	 M191.8,38.6h1.5V45h-1.5V38.6z M191.7,35.7h1.7c0,0.1,0,0.3,0,0.5c0,0.2,0,0.3,0,0.5s0,0.3,0,0.4c0,0.1,0,0.2,0,0.3h-1.4
	c0-0.1,0-0.2,0-0.3c0-0.1,0-0.3,0-0.4c0-0.2,0-0.3,0-0.5C191.7,36,191.7,35.8,191.7,35.7z M199.7,45.2c-0.5,0-1-0.1-1.4-0.3
	c-0.4-0.2-0.7-0.4-1-0.7c-0.3-0.3-0.4-0.7-0.6-1.1c-0.1-0.4-0.2-0.9-0.2-1.4c0-0.5,0.1-0.9,0.2-1.3c0.2-0.4,0.4-0.8,0.6-1.1
	c0.3-0.3,0.6-0.5,1-0.7c0.4-0.2,0.8-0.3,1.3-0.3c0.8,0,1.4,0.2,1.8,0.5c0.4,0.3,0.8,0.7,1,1.2l-1.4,0.6c-0.1-0.3-0.3-0.6-0.5-0.7
	c-0.2-0.2-0.6-0.3-0.9-0.3c-0.2,0-0.4,0-0.6,0.1c-0.2,0.1-0.4,0.2-0.5,0.3c-0.2,0.2-0.3,0.4-0.4,0.7c-0.1,0.3-0.1,0.6-0.1,0.9v0.1
	c0,0.3,0,0.6,0.1,0.9c0.1,0.3,0.2,0.5,0.4,0.7c0.1,0.2,0.3,0.3,0.6,0.4c0.2,0.1,0.5,0.1,0.7,0.1c0.5,0,0.8-0.1,1-0.3
	c0.2-0.2,0.4-0.5,0.5-0.8l1.4,0.5c-0.2,0.6-0.6,1.1-1.1,1.4C201.2,45.1,200.5,45.2,199.7,45.2z M209.8,41.6L209.8,41.6l-0.3,0.3
	c-0.2,0.1-0.4,0.1-0.7,0.2c-0.3,0-0.6,0.1-0.9,0.1c-0.3,0-0.6,0.2-0.7,0.3c-0.2,0.2-0.2,0.4-0.2,0.7c0,0.3,0.1,0.5,0.3,0.7
	c0.2,0.2,0.4,0.2,0.8,0.2c0.3,0,0.7-0.1,0.9-0.2c0.3-0.1,0.5-0.3,0.7-0.5c-0.2,0.7-0.5,1.1-0.9,1.4c-0.4,0.3-0.9,0.4-1.4,0.4
	c-0.6,0-1.1-0.2-1.5-0.5c-0.4-0.3-0.6-0.8-0.6-1.4c0-0.6,0.2-1,0.6-1.4s1-0.5,1.9-0.6c0.7-0.1,1.2-0.1,1.5-0.1
	c0.4,0,0.6-0.1,0.6-0.2v-0.1c0-0.5-0.1-0.9-0.4-1.1c-0.2-0.2-0.6-0.3-1.1-0.3c-0.4,0-0.8,0.1-1.1,0.2c-0.3,0.1-0.5,0.4-0.8,0.6
	l-1.1-0.9c0.4-0.4,0.9-0.7,1.4-0.8c0.5-0.2,1.1-0.3,1.6-0.3c0.9,0,1.6,0.2,2.1,0.6c0.5,0.4,0.7,1,0.7,1.7v2c0,0.2,0,0.3,0,0.6
	c0,0.2,0,0.5,0.1,0.7c0,0.2,0.1,0.4,0.1,0.6c0,0.2,0.1,0.3,0.1,0.3h-1.6c-0.1,0-0.1-0.2-0.1-0.5c0-0.3,0-0.6,0-0.9L209.8,41.6z
	 M217.1,45.2c-0.6,0-1-0.2-1.3-0.5c-0.2-0.3-0.4-0.8-0.4-1.5v-3.5l-0.4,0.2h-0.9v-1.3h1.1l0.4-2.1h1.1v1.4l-0.4,0.8h2.3v1.3h-1.4
	l-0.7-0.2l0.2,0.5v3c0,0.2,0.1,0.4,0.2,0.5c0.1,0.1,0.3,0.1,0.5,0.1h1.1v1.1c-0.2,0.1-0.4,0.2-0.7,0.2
	C217.6,45.2,217.3,45.2,217.1,45.2z M221.8,38.6h1.5V45h-1.5V38.6z M221.7,35.7h1.7c0,0.1,0,0.3,0,0.5c0,0.2,0,0.3,0,0.5
	c0,0.2,0,0.3,0,0.4c0,0.1,0,0.2,0,0.3h-1.4c0-0.1,0-0.2,0-0.3c0-0.1,0-0.3,0-0.4c0-0.2,0-0.3,0-0.5C221.7,36,221.7,35.8,221.7,35.7z
	 M229.7,44c0.3,0,0.6,0,0.8-0.1c0.2-0.1,0.4-0.2,0.6-0.4c0.1-0.2,0.2-0.4,0.3-0.7c0.1-0.3,0.1-0.6,0.1-1v-0.1c0-0.4,0-0.7-0.1-0.9
	s-0.2-0.5-0.3-0.6c-0.1-0.2-0.3-0.3-0.5-0.4c-0.2-0.1-0.5-0.2-0.8-0.2c-0.3,0-0.6,0-0.8,0.1c-0.2,0.1-0.4,0.2-0.5,0.4
	c-0.1,0.2-0.2,0.4-0.3,0.7c-0.1,0.3-0.1,0.6-0.1,0.9v0.1c0,0.4,0,0.7,0.1,0.9c0.1,0.2,0.2,0.5,0.3,0.6c0.1,0.2,0.3,0.3,0.5,0.4
	C229.2,43.9,229.4,44,229.7,44z M229.7,45.2c-0.5,0-1-0.1-1.4-0.3c-0.4-0.2-0.7-0.4-1-0.7c-0.3-0.3-0.5-0.7-0.6-1.1
	c-0.1-0.4-0.2-0.9-0.2-1.3c0-0.5,0.1-1,0.2-1.4c0.1-0.4,0.4-0.8,0.6-1.1c0.3-0.3,0.6-0.5,1-0.7c0.4-0.2,0.9-0.3,1.4-0.3
	s1,0.1,1.4,0.3c0.4,0.2,0.7,0.4,1,0.7c0.3,0.3,0.5,0.6,0.6,1.1c0.1,0.4,0.2,0.9,0.2,1.4c0,0.5-0.1,1-0.2,1.4
	c-0.1,0.4-0.4,0.8-0.6,1.1c-0.3,0.3-0.6,0.5-1,0.7C230.7,45.1,230.2,45.2,229.7,45.2z M237.6,38.6l0.1,1.3c0.3-0.4,0.6-0.7,1-1
	c0.4-0.3,0.9-0.5,1.5-0.5c0.3,0,0.6,0,0.8,0.1c0.2,0.1,0.4,0.2,0.6,0.3c0.2,0.2,0.3,0.5,0.3,0.8c0.1,0.4,0.1,0.8,0.1,1.4V45h-1.5
	v-3.6c0-0.5,0-0.8,0-1c0-0.2-0.1-0.3-0.2-0.4c-0.1-0.1-0.1-0.1-0.3-0.2c-0.1-0.1-0.3-0.1-0.5-0.1c-0.4,0-0.8,0-1.1,0.1
	c-0.3,0.1-0.5,0.1-0.6,0.1v5h-1.5v-6.4H237.6z"/>
<rect y="44.9" class="st1" width="64.2" height="5.3"/>
<path class="st2" d="M42.2,33.8l5.1,2.6v0.7v0.7v0.7v0.7v0.7v0.7v0.7v0.7v0.7v0.7v0.7v0.7v0.7V46v0.7v0.7l-5.1,0.2v-0.9v-0.9v-0.9
	v-0.9v-0.9v-0.9v-0.9v-0.9v-0.9v-0.9v-0.9v-0.9v-0.9v-0.9v-0.9V33.8z"/>
<path class="st3" d="M42.2,14.4l5.1,6.5L46.4,21l-0.8,0.2l-0.8,0.2l-0.8,0.2l-0.8,0.2l-0.8,0.2l-0.8,0.2l-0.8,0.2l-0.8,0.2l-0.8,0.2
	l-0.8,0.2l-0.8,0.2l-0.8,0.2L36,23.3l-0.8,0.2l-0.7,0.2l-0.7,0.2l-0.7,0.1L32.5,24l-0.7,0.1l-0.7,0.1l-0.7,0.1l-0.7,0.1l-0.7,0.1
	l-0.6,0.1L27.9,25l-0.6,0.1l-0.6,0.1L26,25.4l-0.6,0.1l-0.6,0.1l-0.6,0.1l-10.9-5.2l0.8-0.2l0.8-0.2l0.8-0.2l0.8-0.2l0.8-0.2
	l0.8-0.2l0.8-0.2l0.8-0.2l0.8-0.2l0.8-0.2l0.8-0.2l0.8-0.2l0.8-0.2l0.8-0.2l0.9-0.2l0.9-0.2l0.9-0.2l0.9-0.2l1-0.2l1-0.2l1-0.2
	l1-0.2l1-0.2l1-0.2l1-0.2l1-0.2l1-0.2l1-0.2l1-0.2l1-0.2l1.1-0.2L42.2,14.4z"/>
<path class="st4" d="M27,32.6l8.1,2.8l-0.7,0.1l-0.7,0.1L33,35.6l-0.7,0.1l-0.7,0.1L31,35.8l-0.7,0.1L29.7,36L29.1,36l-0.7,0.1
	l-0.6,0.1l-0.6,0.1l-0.6,0.1l-0.6,0.1l-0.6,0.1l-0.6,0.1l-0.6,0.1l-0.6,0.1l-0.6,0.1l-0.6,0.1l-0.6,0.1l-0.5,0.1l-0.5,0.1L20.2,37
	L19.6,37l-0.5,0.1l-0.5,0.1L18,37.2l-0.5,0.1L17,37.3l-0.5,0.1L16,37.4L3,35.1l0.6-0.1L4.3,35L5,34.9l0.7-0.1l0.7-0.1L7,34.7
	l0.7-0.1l0.7-0.1L9,34.5l0.7-0.1l0.7-0.1l0.7-0.1l0.7-0.1l0.7-0.1l0.7-0.1l0.7-0.1l0.8-0.1l0.8-0.1l0.8-0.1l0.8-0.1l0.8-0.1l0.8-0.1
	l0.8-0.1l0.8-0.1l0.8-0.1l0.8-0.1l0.8-0.1l0.8-0.1l0.9-0.1l0.9-0.1l0.9-0.1L27,32.6z"/>
<path class="st5" d="M42.2,0.7l5.1,9.2v0.7v0.7V12v0.7v0.7V14v0.7v0.7v0.7v0.7v0.7v0.7v0.7v0.7v0.7v0.7l-5.1-6.5v-0.9v-0.9v-0.9V11
	v-0.9V9.3V8.4V7.5V6.7V5.8V5V4.1V3.3V2.4V1.6V0.7z"/>
<path class="st5" d="M27,20.2l8.1,5.3v0.6v0.6v0.6V28v0.6v0.6v0.6v0.6v0.6v0.6v0.6v0.6v0.6v0.6v0.6v0.6L27,32.6v-0.8V31v-0.8v-0.8
	v-0.8v-0.8v-0.8v-0.8v-0.8v-0.8v-0.8v-0.8v-0.8v-0.8V21V20.2z"/>
<path class="st6" d="M13.3,9.5l13-3.9l15.9-4.8v13.7l-16,3.4l-12.9,2.8V9.5z M3.1,24.9l10.8-2.1L27,20.3v12.3L13.9,34L3,35.2
	L3.1,24.9L3.1,24.9z M13.3,36.4l13-1.1l16-1.4v13.7H13.3V36.4z"/>
<g>
	<path class="st7" d="M188.9,25.1V9.5h3.6v18.8L188.9,25.1z M192.5,28.3l-1.2-3.2h4.8c1.2,0,2.3-0.3,3.2-0.8
		c0.9-0.5,1.6-1.2,2.1-2.2c0.5-0.9,0.8-2,0.8-3.3c0-1.2-0.3-2.3-0.8-3.2c-0.5-0.9-1.2-1.6-2.1-2.1c-0.9-0.5-2-0.8-3.2-0.8h-4.9V9.5
		h4.9c1.4,0,2.7,0.2,3.9,0.7c1.2,0.5,2.2,1.1,3.1,2c0.9,0.8,1.6,1.8,2.1,3c0.5,1.1,0.7,2.4,0.7,3.8c0,1.4-0.2,2.6-0.7,3.8
		c-0.5,1.2-1.2,2.2-2,3c-0.9,0.9-1.9,1.5-3.1,2c-1.2,0.5-2.5,0.7-3.8,0.7H192.5z"/>
	<g>
		<path class="st7" d="M74.5,28.5V9.7h3.6v18.8L74.5,28.5z M77.2,21.5v-3h4.4c0.6,0,1.1-0.1,1.6-0.3c0.5-0.2,0.8-0.6,1.1-1
			c0.3-0.4,0.4-1,0.4-1.6c0-0.6-0.1-1.1-0.4-1.6c-0.3-0.4-0.6-0.8-1.1-1c-0.5-0.2-1-0.3-1.6-0.3h-4.4v-3h4.7c1.2,0,2.3,0.2,3.2,0.7
			c1,0.5,1.7,1.2,2.3,2c0.6,0.9,0.8,1.9,0.8,3.1s-0.3,2.3-0.8,3.1c-0.6,0.9-1.3,1.6-2.3,2c-1,0.5-2,0.7-3.2,0.7H77.2z"/>
		<path class="st7" d="M115.3,28.8c-1.4,0-2.7-0.2-3.8-0.7c-1.2-0.5-2.2-1.2-3.1-2.1c-0.9-0.9-1.6-1.9-2-3.1
			c-0.5-1.2-0.7-2.4-0.7-3.8c0-1.4,0.2-2.6,0.7-3.8c0.5-1.2,1.2-2.2,2-3.1c0.9-0.9,1.9-1.6,3.1-2.1c1.2-0.5,2.5-0.7,3.8-0.7
			c1.5,0,2.8,0.2,4,0.7c1.1,0.5,2.2,1.2,3,2l-2.5,2.5c-0.5-0.6-1.2-1-1.9-1.3s-1.6-0.5-2.6-0.5c-0.9,0-1.7,0.1-2.4,0.4
			c-0.7,0.3-1.4,0.7-1.9,1.3c-0.5,0.6-0.9,1.2-1.2,2c-0.3,0.8-0.4,1.6-0.4,2.6c0,0.9,0.1,1.8,0.4,2.6c0.3,0.8,0.7,1.4,1.2,2
			c0.5,0.6,1.2,1,1.9,1.3c0.7,0.3,1.5,0.5,2.4,0.5c1.1,0,2-0.2,2.7-0.5c0.8-0.3,1.4-0.8,1.9-1.4l2.5,2.5c-0.9,0.9-1.9,1.6-3.1,2
			C118.2,28.5,116.8,28.8,115.3,28.8z"/>
		<path class="st7" d="M125,28.5V9.7h3.6v18.8H125z"/>
		<path class="st7" d="M131.1,28.5l7.6-18.8h3l7.6,18.8h-3.9L139.4,13h1.3l-5.9,15.5H131.1z M135.1,25v-3.1h10.1V25H135.1z"/>
		<path class="st7" d="M151.4,25.3V9.7h3.6v18.8L151.4,25.3z M155,28.5l-1-3.2h9.6v3.2H155z"/>
		<polygon class="st7" points="229.7,25.1 229.7,9.5 233.4,9.5 233.4,28.3 		"/>
		<path class="st7" d="M223.2,17.9h-5.9V21l5.7,0.1c-0.1,0.6-0.3,1.1-0.5,1.5c-0.4,0.8-1.1,1.5-1.9,1.9c-0.8,0.4-1.8,0.7-3,0.7
			c-1.1,0-2.2-0.3-3-0.8c-0.9-0.5-1.6-1.3-2.1-2.2c-0.5-1-0.8-2.1-0.8-3.3c0-1.2,0.3-2.3,0.8-3.3c0.5-0.9,1.2-1.7,2.2-2.2
			c0.9-0.5,2-0.8,3.2-0.8c1.1,0,2,0.2,2.9,0.6c0.9,0.4,1.6,1,2.2,1.8l2.5-2.5c-0.9-1.1-1.9-1.9-3.2-2.4c-1.3-0.6-2.7-0.9-4.3-0.9
			c-1.4,0-2.7,0.2-3.9,0.7c-1.2,0.5-2.2,1.2-3.1,2.1c-0.9,0.9-1.6,1.9-2.1,3.1c-0.5,1.2-0.7,2.4-0.7,3.8c0,1.4,0.2,2.6,0.7,3.8
			c0.5,1.2,1.2,2.2,2.1,3.1c0.9,0.9,1.9,1.6,3.1,2.1c1.2,0.5,2.4,0.7,3.8,0.7c1.8,0,3.4-0.4,4.8-1.1c1.4-0.8,2.5-1.9,3.3-3.4
			c0.5-0.9,0.8-1.9,1-3.1L223.2,17.9z"/>
		<rect x="232.4" y="9.5" class="st7" width="10.3" height="3.2"/>
		<rect x="232.4" y="17.1" class="st8" width="9.5" height="3.1"/>
		<polygon class="st7" points="233.4,28.3 232.4,25.1 242.8,25.1 242.8,28.3 		"/>
		<rect x="93.6" y="9.6" class="st7" width="10.3" height="3.2"/>
		<polygon class="st7" points="90.8,25.3 90.8,9.6 94.5,9.6 94.5,28.5 		"/>
		<rect x="93.5" y="17.3" class="st8" width="9.5" height="3.1"/>
		<polygon class="st7" points="94.5,28.5 93.5,25.3 103.9,25.3 103.9,28.5 		"/>
		<rect x="175" y="9.6" class="st7" width="10.3" height="3.2"/>
		<polygon class="st7" points="172.3,25.3 172.3,9.6 175.9,9.6 175.9,28.5 		"/>
		<rect x="175" y="17.3" class="st8" width="9.5" height="3.1"/>
		<polygon class="st7" points="175.9,28.5 175,25.3 185.4,25.3 185.4,28.5 		"/>
		<path class="st7" d="M69.9,19c-0.5-0.4-1.1-0.8-1.7-1c-0.6-0.3-1.3-0.5-1.9-0.7c-0.6-0.2-1.2-0.4-1.7-0.7c-0.5-0.2-1-0.5-1.3-0.8
			c-0.3-0.3-0.5-0.7-0.5-1.3c0-0.6,0.2-1.1,0.7-1.4c0.5-0.3,1.1-0.5,2-0.5c0.7,0,1.4,0.1,2,0.4c0.4,0.2,0.8,0.5,1.2,0.9l2.2-2.6
			c-0.5-0.5-1.2-0.9-1.9-1.2c-1-0.5-2.2-0.7-3.5-0.7c-1.2,0-2.3,0.2-3.3,0.6c-1,0.4-1.7,1-2.3,1.8c-0.6,0.8-0.8,1.8-0.8,2.9
			c0,1,0.2,1.8,0.5,2.4c0.3,0.6,0.7,1.2,1.3,1.6c0.5,0.4,1.1,0.7,1.7,1c0.6,0.3,1.3,0.5,1.9,0.7c0.6,0.2,1.2,0.4,1.7,0.7
			c0.5,0.3,1,0.6,1.3,0.9c0.3,0.4,0.5,0.8,0.5,1.4c0,0.7-0.3,1.2-0.8,1.6c-0.6,0.4-1.3,0.6-2.3,0.6c-1.1,0-1.9-0.2-2.7-0.6
			c-0.5-0.3-0.9-0.6-1.3-1l-2.2,2.6c0.6,0.6,1.3,1.1,2.1,1.4c1.1,0.5,2.4,0.8,3.9,0.8c2.1,0,3.8-0.5,5.1-1.5c1.2-1,1.8-2.4,1.8-4.1
			c0-1-0.2-1.8-0.5-2.5C70.8,20,70.4,19.4,69.9,19z"/>
	</g>
</g>
</svg>
